<mxfile host="Electron" modified="2024-04-30T03:46:15.637Z" agent="Mozilla/5.0 (Windows NT 10.0; Win64; x64) AppleWebKit/537.36 (KHTML, like Gecko) draw.io/23.0.2 Chrome/120.0.6099.109 Electron/28.1.0 Safari/537.36" etag="HniQ73GQoUa1myDEkuhh" version="23.0.2" type="device">
  <diagram name="Page-1" id="NNjrZKkRYRidpt6XRPjq">
    <mxGraphModel dx="1985" dy="1393" grid="1" gridSize="10" guides="1" tooltips="1" connect="1" arrows="1" fold="1" page="1" pageScale="1" pageWidth="1100" pageHeight="850" math="0" shadow="0">
      <root>
        <mxCell id="0" />
        <mxCell id="1" parent="0" />
        <mxCell id="C6v04_ZCaa2lR-fAz-w3-1" value="" style="rounded=1;whiteSpace=wrap;html=1;fontSize=20;" vertex="1" parent="1">
          <mxGeometry x="120" y="40" width="120" height="80" as="geometry" />
        </mxCell>
        <mxCell id="C6v04_ZCaa2lR-fAz-w3-2" value="" style="endArrow=none;dashed=1;html=1;rounded=0;entryX=0.667;entryY=0;entryDx=0;entryDy=0;entryPerimeter=0;exitX=0.664;exitY=1.012;exitDx=0;exitDy=0;exitPerimeter=0;fontSize=20;" edge="1" parent="1" source="C6v04_ZCaa2lR-fAz-w3-1" target="C6v04_ZCaa2lR-fAz-w3-1">
          <mxGeometry width="50" height="50" relative="1" as="geometry">
            <mxPoint x="170" y="250" as="sourcePoint" />
            <mxPoint x="430" y="270" as="targetPoint" />
            <Array as="points">
              <mxPoint x="200" y="80" />
            </Array>
          </mxGeometry>
        </mxCell>
        <mxCell id="C6v04_ZCaa2lR-fAz-w3-3" value="" style="rounded=1;whiteSpace=wrap;html=1;fontSize=20;" vertex="1" parent="1">
          <mxGeometry x="320" y="39.04" width="120" height="80" as="geometry" />
        </mxCell>
        <mxCell id="C6v04_ZCaa2lR-fAz-w3-4" value="" style="endArrow=none;dashed=1;html=1;rounded=0;entryX=0.667;entryY=0;entryDx=0;entryDy=0;entryPerimeter=0;exitX=0.664;exitY=1.012;exitDx=0;exitDy=0;exitPerimeter=0;fontSize=20;" edge="1" parent="1" source="C6v04_ZCaa2lR-fAz-w3-3" target="C6v04_ZCaa2lR-fAz-w3-3">
          <mxGeometry width="50" height="50" relative="1" as="geometry">
            <mxPoint x="370" y="249.04" as="sourcePoint" />
            <mxPoint x="630" y="269.04" as="targetPoint" />
            <Array as="points">
              <mxPoint x="400" y="79.03999999999999" />
            </Array>
          </mxGeometry>
        </mxCell>
        <mxCell id="C6v04_ZCaa2lR-fAz-w3-5" value="" style="rounded=1;whiteSpace=wrap;html=1;fontSize=20;" vertex="1" parent="1">
          <mxGeometry x="520" y="40" width="120" height="80" as="geometry" />
        </mxCell>
        <mxCell id="C6v04_ZCaa2lR-fAz-w3-6" value="" style="endArrow=none;dashed=1;html=1;rounded=0;entryX=0.667;entryY=0;entryDx=0;entryDy=0;entryPerimeter=0;exitX=0.664;exitY=1.012;exitDx=0;exitDy=0;exitPerimeter=0;fontSize=20;" edge="1" parent="1" source="C6v04_ZCaa2lR-fAz-w3-5" target="C6v04_ZCaa2lR-fAz-w3-5">
          <mxGeometry width="50" height="50" relative="1" as="geometry">
            <mxPoint x="570" y="250" as="sourcePoint" />
            <mxPoint x="830" y="270" as="targetPoint" />
            <Array as="points">
              <mxPoint x="600" y="80" />
            </Array>
          </mxGeometry>
        </mxCell>
        <mxCell id="C6v04_ZCaa2lR-fAz-w3-7" value="" style="rounded=1;whiteSpace=wrap;html=1;fontSize=20;" vertex="1" parent="1">
          <mxGeometry x="720" y="38.08" width="120" height="80" as="geometry" />
        </mxCell>
        <mxCell id="C6v04_ZCaa2lR-fAz-w3-8" value="" style="endArrow=none;dashed=1;html=1;rounded=0;entryX=0.667;entryY=0;entryDx=0;entryDy=0;entryPerimeter=0;exitX=0.664;exitY=1.012;exitDx=0;exitDy=0;exitPerimeter=0;fontSize=20;" edge="1" parent="1" source="C6v04_ZCaa2lR-fAz-w3-7" target="C6v04_ZCaa2lR-fAz-w3-7">
          <mxGeometry width="50" height="50" relative="1" as="geometry">
            <mxPoint x="770" y="248.07999999999998" as="sourcePoint" />
            <mxPoint x="1030" y="268.08" as="targetPoint" />
            <Array as="points">
              <mxPoint x="800" y="78.08" />
            </Array>
          </mxGeometry>
        </mxCell>
        <mxCell id="C6v04_ZCaa2lR-fAz-w3-9" value="100" style="text;html=1;strokeColor=none;fillColor=none;align=center;verticalAlign=middle;whiteSpace=wrap;rounded=0;fontSize=20;" vertex="1" parent="1">
          <mxGeometry x="130" y="65" width="60" height="30" as="geometry" />
        </mxCell>
        <mxCell id="C6v04_ZCaa2lR-fAz-w3-10" value="Suatu link list berisi 4 node berikut:" style="text;html=1;strokeColor=none;fillColor=none;align=center;verticalAlign=middle;whiteSpace=wrap;rounded=0;fontSize=20;fontStyle=1" vertex="1" parent="1">
          <mxGeometry x="120" y="8.08" width="340" height="30" as="geometry" />
        </mxCell>
        <mxCell id="C6v04_ZCaa2lR-fAz-w3-11" value="200" style="text;html=1;strokeColor=none;fillColor=none;align=center;verticalAlign=middle;whiteSpace=wrap;rounded=0;fontSize=20;" vertex="1" parent="1">
          <mxGeometry x="340" y="65" width="60" height="30" as="geometry" />
        </mxCell>
        <mxCell id="C6v04_ZCaa2lR-fAz-w3-12" value="300" style="text;html=1;strokeColor=none;fillColor=none;align=center;verticalAlign=middle;whiteSpace=wrap;rounded=0;fontSize=20;" vertex="1" parent="1">
          <mxGeometry x="530" y="65" width="60" height="30" as="geometry" />
        </mxCell>
        <mxCell id="C6v04_ZCaa2lR-fAz-w3-13" value="400" style="text;html=1;strokeColor=none;fillColor=none;align=center;verticalAlign=middle;whiteSpace=wrap;rounded=0;fontSize=20;" vertex="1" parent="1">
          <mxGeometry x="730" y="63.08" width="60" height="30" as="geometry" />
        </mxCell>
        <mxCell id="C6v04_ZCaa2lR-fAz-w3-14" value="" style="endArrow=classic;html=1;rounded=0;exitX=0.833;exitY=0.5;exitDx=0;exitDy=0;exitPerimeter=0;fontSize=20;" edge="1" parent="1" source="C6v04_ZCaa2lR-fAz-w3-1" target="C6v04_ZCaa2lR-fAz-w3-11">
          <mxGeometry width="50" height="50" relative="1" as="geometry">
            <mxPoint x="280" y="200" as="sourcePoint" />
            <mxPoint x="330" y="150" as="targetPoint" />
          </mxGeometry>
        </mxCell>
        <mxCell id="C6v04_ZCaa2lR-fAz-w3-15" style="edgeStyle=orthogonalEdgeStyle;rounded=0;orthogonalLoop=1;jettySize=auto;html=1;exitX=0.5;exitY=1;exitDx=0;exitDy=0;fontSize=20;" edge="1" parent="1" source="C6v04_ZCaa2lR-fAz-w3-11" target="C6v04_ZCaa2lR-fAz-w3-11">
          <mxGeometry relative="1" as="geometry" />
        </mxCell>
        <mxCell id="C6v04_ZCaa2lR-fAz-w3-16" value="" style="endArrow=classic;html=1;rounded=0;exitX=0.833;exitY=0.5;exitDx=0;exitDy=0;exitPerimeter=0;fontSize=20;" edge="1" parent="1">
          <mxGeometry width="50" height="50" relative="1" as="geometry">
            <mxPoint x="420" y="79.66" as="sourcePoint" />
            <mxPoint x="540" y="79.66" as="targetPoint" />
          </mxGeometry>
        </mxCell>
        <mxCell id="C6v04_ZCaa2lR-fAz-w3-17" value="" style="endArrow=classic;html=1;rounded=0;exitX=0.833;exitY=0.5;exitDx=0;exitDy=0;exitPerimeter=0;fontSize=20;" edge="1" parent="1">
          <mxGeometry width="50" height="50" relative="1" as="geometry">
            <mxPoint x="610" y="77.74" as="sourcePoint" />
            <mxPoint x="730" y="77.74" as="targetPoint" />
          </mxGeometry>
        </mxCell>
        <mxCell id="C6v04_ZCaa2lR-fAz-w3-18" value="" style="endArrow=none;html=1;rounded=0;exitX=0.833;exitY=0.524;exitDx=0;exitDy=0;exitPerimeter=0;fontSize=20;" edge="1" parent="1" source="C6v04_ZCaa2lR-fAz-w3-7">
          <mxGeometry width="50" height="50" relative="1" as="geometry">
            <mxPoint x="900" y="100" as="sourcePoint" />
            <mxPoint x="920" y="120" as="targetPoint" />
            <Array as="points">
              <mxPoint x="920" y="80" />
            </Array>
          </mxGeometry>
        </mxCell>
        <mxCell id="C6v04_ZCaa2lR-fAz-w3-20" value="" style="shape=link;html=1;rounded=0;fontSize=20;" edge="1" parent="1">
          <mxGeometry width="100" relative="1" as="geometry">
            <mxPoint x="900" y="120" as="sourcePoint" />
            <mxPoint x="940" y="120" as="targetPoint" />
          </mxGeometry>
        </mxCell>
        <mxCell id="C6v04_ZCaa2lR-fAz-w3-21" value="Tambahkan node baru dengan data 500 dari belakang.&amp;nbsp;" style="text;html=1;strokeColor=none;fillColor=none;align=center;verticalAlign=middle;whiteSpace=wrap;rounded=0;fontSize=20;fontStyle=1" vertex="1" parent="1">
          <mxGeometry x="120" y="200" width="530" height="30" as="geometry" />
        </mxCell>
        <mxCell id="C6v04_ZCaa2lR-fAz-w3-22" value="" style="rounded=1;whiteSpace=wrap;html=1;fontSize=20;" vertex="1" parent="1">
          <mxGeometry x="120" y="231.91999999999996" width="120" height="80" as="geometry" />
        </mxCell>
        <mxCell id="C6v04_ZCaa2lR-fAz-w3-23" value="" style="endArrow=none;dashed=1;html=1;rounded=0;entryX=0.667;entryY=0;entryDx=0;entryDy=0;entryPerimeter=0;exitX=0.664;exitY=1.012;exitDx=0;exitDy=0;exitPerimeter=0;fontSize=20;" edge="1" parent="1" source="C6v04_ZCaa2lR-fAz-w3-22" target="C6v04_ZCaa2lR-fAz-w3-22">
          <mxGeometry width="50" height="50" relative="1" as="geometry">
            <mxPoint x="170" y="441.91999999999996" as="sourcePoint" />
            <mxPoint x="430" y="461.91999999999996" as="targetPoint" />
            <Array as="points">
              <mxPoint x="200" y="271.91999999999996" />
            </Array>
          </mxGeometry>
        </mxCell>
        <mxCell id="C6v04_ZCaa2lR-fAz-w3-24" value="" style="rounded=1;whiteSpace=wrap;html=1;fontSize=20;" vertex="1" parent="1">
          <mxGeometry x="320" y="230.95999999999998" width="120" height="80" as="geometry" />
        </mxCell>
        <mxCell id="C6v04_ZCaa2lR-fAz-w3-25" value="" style="endArrow=none;dashed=1;html=1;rounded=0;entryX=0.667;entryY=0;entryDx=0;entryDy=0;entryPerimeter=0;exitX=0.664;exitY=1.012;exitDx=0;exitDy=0;exitPerimeter=0;fontSize=20;" edge="1" parent="1" source="C6v04_ZCaa2lR-fAz-w3-24" target="C6v04_ZCaa2lR-fAz-w3-24">
          <mxGeometry width="50" height="50" relative="1" as="geometry">
            <mxPoint x="370" y="440.9599999999999" as="sourcePoint" />
            <mxPoint x="630" y="460.96000000000004" as="targetPoint" />
            <Array as="points">
              <mxPoint x="400" y="270.96" />
            </Array>
          </mxGeometry>
        </mxCell>
        <mxCell id="C6v04_ZCaa2lR-fAz-w3-26" value="" style="rounded=1;whiteSpace=wrap;html=1;fontSize=20;" vertex="1" parent="1">
          <mxGeometry x="520" y="231.91999999999996" width="120" height="80" as="geometry" />
        </mxCell>
        <mxCell id="C6v04_ZCaa2lR-fAz-w3-27" value="" style="endArrow=none;dashed=1;html=1;rounded=0;entryX=0.667;entryY=0;entryDx=0;entryDy=0;entryPerimeter=0;exitX=0.664;exitY=1.012;exitDx=0;exitDy=0;exitPerimeter=0;fontSize=20;" edge="1" parent="1" source="C6v04_ZCaa2lR-fAz-w3-26" target="C6v04_ZCaa2lR-fAz-w3-26">
          <mxGeometry width="50" height="50" relative="1" as="geometry">
            <mxPoint x="570" y="441.91999999999996" as="sourcePoint" />
            <mxPoint x="830" y="461.91999999999996" as="targetPoint" />
            <Array as="points">
              <mxPoint x="600" y="271.91999999999996" />
            </Array>
          </mxGeometry>
        </mxCell>
        <mxCell id="C6v04_ZCaa2lR-fAz-w3-28" value="" style="rounded=1;whiteSpace=wrap;html=1;fontSize=20;" vertex="1" parent="1">
          <mxGeometry x="720" y="230" width="120" height="80" as="geometry" />
        </mxCell>
        <mxCell id="C6v04_ZCaa2lR-fAz-w3-29" value="" style="endArrow=none;dashed=1;html=1;rounded=0;entryX=0.667;entryY=0;entryDx=0;entryDy=0;entryPerimeter=0;exitX=0.664;exitY=1.012;exitDx=0;exitDy=0;exitPerimeter=0;fontSize=20;" edge="1" parent="1" source="C6v04_ZCaa2lR-fAz-w3-28" target="C6v04_ZCaa2lR-fAz-w3-28">
          <mxGeometry width="50" height="50" relative="1" as="geometry">
            <mxPoint x="770" y="440" as="sourcePoint" />
            <mxPoint x="1030" y="460" as="targetPoint" />
            <Array as="points">
              <mxPoint x="800" y="270" />
            </Array>
          </mxGeometry>
        </mxCell>
        <mxCell id="C6v04_ZCaa2lR-fAz-w3-30" value="100" style="text;html=1;strokeColor=none;fillColor=none;align=center;verticalAlign=middle;whiteSpace=wrap;rounded=0;fontSize=20;" vertex="1" parent="1">
          <mxGeometry x="130" y="256.91999999999996" width="60" height="30" as="geometry" />
        </mxCell>
        <mxCell id="C6v04_ZCaa2lR-fAz-w3-31" value="200" style="text;html=1;strokeColor=none;fillColor=none;align=center;verticalAlign=middle;whiteSpace=wrap;rounded=0;fontSize=20;" vertex="1" parent="1">
          <mxGeometry x="340" y="256.91999999999996" width="60" height="30" as="geometry" />
        </mxCell>
        <mxCell id="C6v04_ZCaa2lR-fAz-w3-32" value="300" style="text;html=1;strokeColor=none;fillColor=none;align=center;verticalAlign=middle;whiteSpace=wrap;rounded=0;fontSize=20;" vertex="1" parent="1">
          <mxGeometry x="530" y="256.91999999999996" width="60" height="30" as="geometry" />
        </mxCell>
        <mxCell id="C6v04_ZCaa2lR-fAz-w3-33" value="400" style="text;html=1;strokeColor=none;fillColor=none;align=center;verticalAlign=middle;whiteSpace=wrap;rounded=0;fontSize=20;" vertex="1" parent="1">
          <mxGeometry x="730" y="255" width="60" height="30" as="geometry" />
        </mxCell>
        <mxCell id="C6v04_ZCaa2lR-fAz-w3-34" value="" style="endArrow=classic;html=1;rounded=0;exitX=0.833;exitY=0.5;exitDx=0;exitDy=0;exitPerimeter=0;fontSize=20;" edge="1" parent="1" source="C6v04_ZCaa2lR-fAz-w3-22" target="C6v04_ZCaa2lR-fAz-w3-31">
          <mxGeometry width="50" height="50" relative="1" as="geometry">
            <mxPoint x="280" y="391.91999999999996" as="sourcePoint" />
            <mxPoint x="330" y="341.91999999999996" as="targetPoint" />
          </mxGeometry>
        </mxCell>
        <mxCell id="C6v04_ZCaa2lR-fAz-w3-35" style="edgeStyle=orthogonalEdgeStyle;rounded=0;orthogonalLoop=1;jettySize=auto;html=1;exitX=0.5;exitY=1;exitDx=0;exitDy=0;fontSize=20;" edge="1" parent="1" source="C6v04_ZCaa2lR-fAz-w3-31" target="C6v04_ZCaa2lR-fAz-w3-31">
          <mxGeometry relative="1" as="geometry" />
        </mxCell>
        <mxCell id="C6v04_ZCaa2lR-fAz-w3-36" value="" style="endArrow=classic;html=1;rounded=0;exitX=0.833;exitY=0.5;exitDx=0;exitDy=0;exitPerimeter=0;fontSize=20;" edge="1" parent="1">
          <mxGeometry width="50" height="50" relative="1" as="geometry">
            <mxPoint x="420" y="271.58" as="sourcePoint" />
            <mxPoint x="540" y="271.58" as="targetPoint" />
          </mxGeometry>
        </mxCell>
        <mxCell id="C6v04_ZCaa2lR-fAz-w3-37" value="" style="endArrow=classic;html=1;rounded=0;exitX=0.833;exitY=0.5;exitDx=0;exitDy=0;exitPerimeter=0;fontSize=20;" edge="1" parent="1">
          <mxGeometry width="50" height="50" relative="1" as="geometry">
            <mxPoint x="610" y="269.65999999999997" as="sourcePoint" />
            <mxPoint x="730" y="269.65999999999997" as="targetPoint" />
          </mxGeometry>
        </mxCell>
        <mxCell id="C6v04_ZCaa2lR-fAz-w3-39" value="" style="shape=link;html=1;rounded=0;fontSize=20;" edge="1" parent="1">
          <mxGeometry width="100" relative="1" as="geometry">
            <mxPoint x="1100" y="311.91999999999996" as="sourcePoint" />
            <mxPoint x="1140" y="311.91999999999996" as="targetPoint" />
          </mxGeometry>
        </mxCell>
        <mxCell id="C6v04_ZCaa2lR-fAz-w3-41" value="" style="rounded=1;whiteSpace=wrap;html=1;fontSize=20;" vertex="1" parent="1">
          <mxGeometry x="920" y="229.04000000000002" width="120" height="80" as="geometry" />
        </mxCell>
        <mxCell id="C6v04_ZCaa2lR-fAz-w3-42" value="" style="endArrow=none;dashed=1;html=1;rounded=0;entryX=0.667;entryY=0;entryDx=0;entryDy=0;entryPerimeter=0;exitX=0.664;exitY=1.012;exitDx=0;exitDy=0;exitPerimeter=0;fontSize=20;" edge="1" parent="1" source="C6v04_ZCaa2lR-fAz-w3-41" target="C6v04_ZCaa2lR-fAz-w3-41">
          <mxGeometry width="50" height="50" relative="1" as="geometry">
            <mxPoint x="970" y="439.04" as="sourcePoint" />
            <mxPoint x="1230" y="459.04" as="targetPoint" />
            <Array as="points">
              <mxPoint x="1000" y="269.04" />
            </Array>
          </mxGeometry>
        </mxCell>
        <mxCell id="C6v04_ZCaa2lR-fAz-w3-43" value="500" style="text;html=1;strokeColor=none;fillColor=none;align=center;verticalAlign=middle;whiteSpace=wrap;rounded=0;fontSize=20;" vertex="1" parent="1">
          <mxGeometry x="930" y="254.04000000000002" width="60" height="30" as="geometry" />
        </mxCell>
        <mxCell id="C6v04_ZCaa2lR-fAz-w3-44" value="" style="endArrow=classic;html=1;rounded=0;exitX=0.833;exitY=0.5;exitDx=0;exitDy=0;exitPerimeter=0;fontSize=20;" edge="1" parent="1">
          <mxGeometry width="50" height="50" relative="1" as="geometry">
            <mxPoint x="820" y="268.79999999999995" as="sourcePoint" />
            <mxPoint x="940" y="268.79999999999995" as="targetPoint" />
          </mxGeometry>
        </mxCell>
        <mxCell id="C6v04_ZCaa2lR-fAz-w3-46" value="" style="endArrow=none;html=1;rounded=0;exitX=0.833;exitY=0.524;exitDx=0;exitDy=0;exitPerimeter=0;fontSize=20;" edge="1" parent="1">
          <mxGeometry width="50" height="50" relative="1" as="geometry">
            <mxPoint x="1020" y="269.03999999999996" as="sourcePoint" />
            <mxPoint x="1120" y="309.04" as="targetPoint" />
            <Array as="points">
              <mxPoint x="1120" y="269.03999999999996" />
            </Array>
          </mxGeometry>
        </mxCell>
        <mxCell id="C6v04_ZCaa2lR-fAz-w3-47" value="Tambahkan node baru dengan data 50 dari depan." style="text;html=1;strokeColor=none;fillColor=none;align=center;verticalAlign=middle;whiteSpace=wrap;rounded=0;fontSize=20;fontStyle=1" vertex="1" parent="1">
          <mxGeometry x="120" y="400" width="500" height="30" as="geometry" />
        </mxCell>
        <mxCell id="C6v04_ZCaa2lR-fAz-w3-48" value="" style="rounded=1;whiteSpace=wrap;html=1;fontSize=20;" vertex="1" parent="1">
          <mxGeometry x="120" y="440" width="120" height="80" as="geometry" />
        </mxCell>
        <mxCell id="C6v04_ZCaa2lR-fAz-w3-49" value="" style="endArrow=none;dashed=1;html=1;rounded=0;entryX=0.667;entryY=0;entryDx=0;entryDy=0;entryPerimeter=0;exitX=0.664;exitY=1.012;exitDx=0;exitDy=0;exitPerimeter=0;fontSize=20;" edge="1" parent="1" source="C6v04_ZCaa2lR-fAz-w3-48" target="C6v04_ZCaa2lR-fAz-w3-48">
          <mxGeometry width="50" height="50" relative="1" as="geometry">
            <mxPoint x="170" y="650" as="sourcePoint" />
            <mxPoint x="430" y="670" as="targetPoint" />
            <Array as="points">
              <mxPoint x="200" y="480" />
            </Array>
          </mxGeometry>
        </mxCell>
        <mxCell id="C6v04_ZCaa2lR-fAz-w3-50" value="50" style="text;html=1;strokeColor=none;fillColor=none;align=center;verticalAlign=middle;whiteSpace=wrap;rounded=0;fontSize=20;" vertex="1" parent="1">
          <mxGeometry x="130" y="465" width="60" height="30" as="geometry" />
        </mxCell>
        <mxCell id="C6v04_ZCaa2lR-fAz-w3-71" value="" style="rounded=1;whiteSpace=wrap;html=1;fontSize=20;" vertex="1" parent="1">
          <mxGeometry x="320" y="442.88" width="120" height="80" as="geometry" />
        </mxCell>
        <mxCell id="C6v04_ZCaa2lR-fAz-w3-72" value="" style="endArrow=none;dashed=1;html=1;rounded=0;entryX=0.667;entryY=0;entryDx=0;entryDy=0;entryPerimeter=0;exitX=0.664;exitY=1.012;exitDx=0;exitDy=0;exitPerimeter=0;fontSize=20;" edge="1" parent="1" source="C6v04_ZCaa2lR-fAz-w3-71" target="C6v04_ZCaa2lR-fAz-w3-71">
          <mxGeometry width="50" height="50" relative="1" as="geometry">
            <mxPoint x="370" y="652.88" as="sourcePoint" />
            <mxPoint x="630" y="672.88" as="targetPoint" />
            <Array as="points">
              <mxPoint x="400" y="482.88" />
            </Array>
          </mxGeometry>
        </mxCell>
        <mxCell id="C6v04_ZCaa2lR-fAz-w3-73" value="" style="rounded=1;whiteSpace=wrap;html=1;fontSize=20;" vertex="1" parent="1">
          <mxGeometry x="520" y="441.91999999999996" width="120" height="80" as="geometry" />
        </mxCell>
        <mxCell id="C6v04_ZCaa2lR-fAz-w3-74" value="" style="endArrow=none;dashed=1;html=1;rounded=0;entryX=0.667;entryY=0;entryDx=0;entryDy=0;entryPerimeter=0;exitX=0.664;exitY=1.012;exitDx=0;exitDy=0;exitPerimeter=0;fontSize=20;" edge="1" parent="1" source="C6v04_ZCaa2lR-fAz-w3-73" target="C6v04_ZCaa2lR-fAz-w3-73">
          <mxGeometry width="50" height="50" relative="1" as="geometry">
            <mxPoint x="570" y="651.92" as="sourcePoint" />
            <mxPoint x="830" y="671.9200000000001" as="targetPoint" />
            <Array as="points">
              <mxPoint x="600" y="481.91999999999996" />
            </Array>
          </mxGeometry>
        </mxCell>
        <mxCell id="C6v04_ZCaa2lR-fAz-w3-75" value="" style="rounded=1;whiteSpace=wrap;html=1;fontSize=20;" vertex="1" parent="1">
          <mxGeometry x="720" y="442.88" width="120" height="80" as="geometry" />
        </mxCell>
        <mxCell id="C6v04_ZCaa2lR-fAz-w3-76" value="" style="endArrow=none;dashed=1;html=1;rounded=0;entryX=0.667;entryY=0;entryDx=0;entryDy=0;entryPerimeter=0;exitX=0.664;exitY=1.012;exitDx=0;exitDy=0;exitPerimeter=0;fontSize=20;" edge="1" parent="1" source="C6v04_ZCaa2lR-fAz-w3-75" target="C6v04_ZCaa2lR-fAz-w3-75">
          <mxGeometry width="50" height="50" relative="1" as="geometry">
            <mxPoint x="770" y="652.88" as="sourcePoint" />
            <mxPoint x="1030" y="672.88" as="targetPoint" />
            <Array as="points">
              <mxPoint x="800" y="482.88" />
            </Array>
          </mxGeometry>
        </mxCell>
        <mxCell id="C6v04_ZCaa2lR-fAz-w3-77" value="" style="rounded=1;whiteSpace=wrap;html=1;fontSize=20;" vertex="1" parent="1">
          <mxGeometry x="920" y="440.96000000000004" width="120" height="80" as="geometry" />
        </mxCell>
        <mxCell id="C6v04_ZCaa2lR-fAz-w3-78" value="" style="endArrow=none;dashed=1;html=1;rounded=0;entryX=0.667;entryY=0;entryDx=0;entryDy=0;entryPerimeter=0;exitX=0.664;exitY=1.012;exitDx=0;exitDy=0;exitPerimeter=0;fontSize=20;" edge="1" parent="1" source="C6v04_ZCaa2lR-fAz-w3-77" target="C6v04_ZCaa2lR-fAz-w3-77">
          <mxGeometry width="50" height="50" relative="1" as="geometry">
            <mxPoint x="970" y="650.96" as="sourcePoint" />
            <mxPoint x="1230" y="670.96" as="targetPoint" />
            <Array as="points">
              <mxPoint x="1000" y="480.96000000000004" />
            </Array>
          </mxGeometry>
        </mxCell>
        <mxCell id="C6v04_ZCaa2lR-fAz-w3-79" value="100" style="text;html=1;strokeColor=none;fillColor=none;align=center;verticalAlign=middle;whiteSpace=wrap;rounded=0;fontSize=20;" vertex="1" parent="1">
          <mxGeometry x="330" y="467.88" width="60" height="30" as="geometry" />
        </mxCell>
        <mxCell id="C6v04_ZCaa2lR-fAz-w3-80" value="200" style="text;html=1;strokeColor=none;fillColor=none;align=center;verticalAlign=middle;whiteSpace=wrap;rounded=0;fontSize=20;" vertex="1" parent="1">
          <mxGeometry x="540" y="467.88" width="60" height="30" as="geometry" />
        </mxCell>
        <mxCell id="C6v04_ZCaa2lR-fAz-w3-81" value="300" style="text;html=1;strokeColor=none;fillColor=none;align=center;verticalAlign=middle;whiteSpace=wrap;rounded=0;fontSize=20;" vertex="1" parent="1">
          <mxGeometry x="730" y="467.88" width="60" height="30" as="geometry" />
        </mxCell>
        <mxCell id="C6v04_ZCaa2lR-fAz-w3-82" value="400" style="text;html=1;strokeColor=none;fillColor=none;align=center;verticalAlign=middle;whiteSpace=wrap;rounded=0;fontSize=20;" vertex="1" parent="1">
          <mxGeometry x="930" y="465.96000000000004" width="60" height="30" as="geometry" />
        </mxCell>
        <mxCell id="C6v04_ZCaa2lR-fAz-w3-83" value="" style="endArrow=classic;html=1;rounded=0;exitX=0.833;exitY=0.5;exitDx=0;exitDy=0;exitPerimeter=0;fontSize=20;" edge="1" parent="1" source="C6v04_ZCaa2lR-fAz-w3-71" target="C6v04_ZCaa2lR-fAz-w3-80">
          <mxGeometry width="50" height="50" relative="1" as="geometry">
            <mxPoint x="480" y="602.88" as="sourcePoint" />
            <mxPoint x="530" y="552.88" as="targetPoint" />
          </mxGeometry>
        </mxCell>
        <mxCell id="C6v04_ZCaa2lR-fAz-w3-84" style="edgeStyle=orthogonalEdgeStyle;rounded=0;orthogonalLoop=1;jettySize=auto;html=1;exitX=0.5;exitY=1;exitDx=0;exitDy=0;fontSize=20;" edge="1" parent="1" source="C6v04_ZCaa2lR-fAz-w3-80" target="C6v04_ZCaa2lR-fAz-w3-80">
          <mxGeometry relative="1" as="geometry" />
        </mxCell>
        <mxCell id="C6v04_ZCaa2lR-fAz-w3-85" value="" style="endArrow=classic;html=1;rounded=0;exitX=0.833;exitY=0.5;exitDx=0;exitDy=0;exitPerimeter=0;fontSize=20;" edge="1" parent="1">
          <mxGeometry width="50" height="50" relative="1" as="geometry">
            <mxPoint x="620" y="482.53999999999996" as="sourcePoint" />
            <mxPoint x="740" y="482.53999999999996" as="targetPoint" />
          </mxGeometry>
        </mxCell>
        <mxCell id="C6v04_ZCaa2lR-fAz-w3-86" value="" style="endArrow=classic;html=1;rounded=0;exitX=0.833;exitY=0.5;exitDx=0;exitDy=0;exitPerimeter=0;fontSize=20;" edge="1" parent="1">
          <mxGeometry width="50" height="50" relative="1" as="geometry">
            <mxPoint x="810" y="480.62" as="sourcePoint" />
            <mxPoint x="930" y="480.62" as="targetPoint" />
          </mxGeometry>
        </mxCell>
        <mxCell id="C6v04_ZCaa2lR-fAz-w3-87" value="" style="shape=link;html=1;rounded=0;fontSize=20;" edge="1" parent="1">
          <mxGeometry width="100" relative="1" as="geometry">
            <mxPoint x="1300" y="522.88" as="sourcePoint" />
            <mxPoint x="1340" y="522.88" as="targetPoint" />
          </mxGeometry>
        </mxCell>
        <mxCell id="C6v04_ZCaa2lR-fAz-w3-88" value="" style="rounded=1;whiteSpace=wrap;html=1;fontSize=20;" vertex="1" parent="1">
          <mxGeometry x="1120" y="440" width="120" height="80" as="geometry" />
        </mxCell>
        <mxCell id="C6v04_ZCaa2lR-fAz-w3-89" value="" style="endArrow=none;dashed=1;html=1;rounded=0;entryX=0.667;entryY=0;entryDx=0;entryDy=0;entryPerimeter=0;exitX=0.664;exitY=1.012;exitDx=0;exitDy=0;exitPerimeter=0;fontSize=20;" edge="1" parent="1" source="C6v04_ZCaa2lR-fAz-w3-88" target="C6v04_ZCaa2lR-fAz-w3-88">
          <mxGeometry width="50" height="50" relative="1" as="geometry">
            <mxPoint x="1170" y="650" as="sourcePoint" />
            <mxPoint x="1430" y="670" as="targetPoint" />
            <Array as="points">
              <mxPoint x="1200" y="480" />
            </Array>
          </mxGeometry>
        </mxCell>
        <mxCell id="C6v04_ZCaa2lR-fAz-w3-90" value="500" style="text;html=1;strokeColor=none;fillColor=none;align=center;verticalAlign=middle;whiteSpace=wrap;rounded=0;fontSize=20;" vertex="1" parent="1">
          <mxGeometry x="1130" y="465" width="60" height="30" as="geometry" />
        </mxCell>
        <mxCell id="C6v04_ZCaa2lR-fAz-w3-91" value="" style="endArrow=classic;html=1;rounded=0;exitX=0.833;exitY=0.5;exitDx=0;exitDy=0;exitPerimeter=0;fontSize=20;" edge="1" parent="1">
          <mxGeometry width="50" height="50" relative="1" as="geometry">
            <mxPoint x="1020" y="479.76" as="sourcePoint" />
            <mxPoint x="1140" y="479.76" as="targetPoint" />
          </mxGeometry>
        </mxCell>
        <mxCell id="C6v04_ZCaa2lR-fAz-w3-92" value="" style="endArrow=none;html=1;rounded=0;exitX=0.833;exitY=0.524;exitDx=0;exitDy=0;exitPerimeter=0;fontSize=20;" edge="1" parent="1">
          <mxGeometry width="50" height="50" relative="1" as="geometry">
            <mxPoint x="1220" y="480" as="sourcePoint" />
            <mxPoint x="1320" y="520" as="targetPoint" />
            <Array as="points">
              <mxPoint x="1320" y="480" />
            </Array>
          </mxGeometry>
        </mxCell>
        <mxCell id="C6v04_ZCaa2lR-fAz-w3-93" value="" style="endArrow=classic;html=1;rounded=0;exitX=0.833;exitY=0.5;exitDx=0;exitDy=0;exitPerimeter=0;fontSize=20;" edge="1" parent="1">
          <mxGeometry width="50" height="50" relative="1" as="geometry">
            <mxPoint x="220" y="482.35" as="sourcePoint" />
            <mxPoint x="340" y="482.35" as="targetPoint" />
          </mxGeometry>
        </mxCell>
        <mxCell id="C6v04_ZCaa2lR-fAz-w3-97" value="Tambahkan node dengan data 250 setelah node 200" style="text;html=1;strokeColor=none;fillColor=none;align=center;verticalAlign=middle;whiteSpace=wrap;rounded=0;fontSize=20;fontStyle=1" vertex="1" parent="1">
          <mxGeometry x="110" y="600" width="510" height="30" as="geometry" />
        </mxCell>
        <mxCell id="C6v04_ZCaa2lR-fAz-w3-115" value="" style="rounded=1;whiteSpace=wrap;html=1;fontSize=20;" vertex="1" parent="1">
          <mxGeometry x="120" y="640" width="120" height="80" as="geometry" />
        </mxCell>
        <mxCell id="C6v04_ZCaa2lR-fAz-w3-116" value="" style="endArrow=none;dashed=1;html=1;rounded=0;entryX=0.667;entryY=0;entryDx=0;entryDy=0;entryPerimeter=0;exitX=0.664;exitY=1.012;exitDx=0;exitDy=0;exitPerimeter=0;fontSize=20;" edge="1" parent="1" source="C6v04_ZCaa2lR-fAz-w3-115" target="C6v04_ZCaa2lR-fAz-w3-115">
          <mxGeometry width="50" height="50" relative="1" as="geometry">
            <mxPoint x="170" y="850" as="sourcePoint" />
            <mxPoint x="430" y="870" as="targetPoint" />
            <Array as="points">
              <mxPoint x="200" y="680" />
            </Array>
          </mxGeometry>
        </mxCell>
        <mxCell id="C6v04_ZCaa2lR-fAz-w3-117" value="50" style="text;html=1;strokeColor=none;fillColor=none;align=center;verticalAlign=middle;whiteSpace=wrap;rounded=0;fontSize=20;" vertex="1" parent="1">
          <mxGeometry x="130" y="665" width="60" height="30" as="geometry" />
        </mxCell>
        <mxCell id="C6v04_ZCaa2lR-fAz-w3-118" value="" style="rounded=1;whiteSpace=wrap;html=1;fontSize=20;" vertex="1" parent="1">
          <mxGeometry x="320" y="642.88" width="120" height="80" as="geometry" />
        </mxCell>
        <mxCell id="C6v04_ZCaa2lR-fAz-w3-119" value="" style="endArrow=none;dashed=1;html=1;rounded=0;entryX=0.667;entryY=0;entryDx=0;entryDy=0;entryPerimeter=0;exitX=0.664;exitY=1.012;exitDx=0;exitDy=0;exitPerimeter=0;fontSize=20;" edge="1" parent="1" source="C6v04_ZCaa2lR-fAz-w3-118" target="C6v04_ZCaa2lR-fAz-w3-118">
          <mxGeometry width="50" height="50" relative="1" as="geometry">
            <mxPoint x="370" y="852.88" as="sourcePoint" />
            <mxPoint x="630" y="872.88" as="targetPoint" />
            <Array as="points">
              <mxPoint x="400" y="682.88" />
            </Array>
          </mxGeometry>
        </mxCell>
        <mxCell id="C6v04_ZCaa2lR-fAz-w3-120" value="" style="rounded=1;whiteSpace=wrap;html=1;fontSize=20;" vertex="1" parent="1">
          <mxGeometry x="520" y="641.92" width="120" height="80" as="geometry" />
        </mxCell>
        <mxCell id="C6v04_ZCaa2lR-fAz-w3-121" value="" style="endArrow=none;dashed=1;html=1;rounded=0;entryX=0.667;entryY=0;entryDx=0;entryDy=0;entryPerimeter=0;exitX=0.664;exitY=1.012;exitDx=0;exitDy=0;exitPerimeter=0;fontSize=20;" edge="1" parent="1" source="C6v04_ZCaa2lR-fAz-w3-120" target="C6v04_ZCaa2lR-fAz-w3-120">
          <mxGeometry width="50" height="50" relative="1" as="geometry">
            <mxPoint x="570" y="851.92" as="sourcePoint" />
            <mxPoint x="830" y="871.9200000000001" as="targetPoint" />
            <Array as="points">
              <mxPoint x="600" y="681.92" />
            </Array>
          </mxGeometry>
        </mxCell>
        <mxCell id="C6v04_ZCaa2lR-fAz-w3-122" value="100" style="text;html=1;strokeColor=none;fillColor=none;align=center;verticalAlign=middle;whiteSpace=wrap;rounded=0;fontSize=20;" vertex="1" parent="1">
          <mxGeometry x="330" y="667.88" width="60" height="30" as="geometry" />
        </mxCell>
        <mxCell id="C6v04_ZCaa2lR-fAz-w3-123" value="200" style="text;html=1;strokeColor=none;fillColor=none;align=center;verticalAlign=middle;whiteSpace=wrap;rounded=0;fontSize=20;" vertex="1" parent="1">
          <mxGeometry x="540" y="667.88" width="60" height="30" as="geometry" />
        </mxCell>
        <mxCell id="C6v04_ZCaa2lR-fAz-w3-124" value="" style="endArrow=classic;html=1;rounded=0;exitX=0.833;exitY=0.5;exitDx=0;exitDy=0;exitPerimeter=0;fontSize=20;" edge="1" parent="1" source="C6v04_ZCaa2lR-fAz-w3-118" target="C6v04_ZCaa2lR-fAz-w3-123">
          <mxGeometry width="50" height="50" relative="1" as="geometry">
            <mxPoint x="480" y="802.88" as="sourcePoint" />
            <mxPoint x="530" y="752.88" as="targetPoint" />
          </mxGeometry>
        </mxCell>
        <mxCell id="C6v04_ZCaa2lR-fAz-w3-125" style="edgeStyle=orthogonalEdgeStyle;rounded=0;orthogonalLoop=1;jettySize=auto;html=1;exitX=0.5;exitY=1;exitDx=0;exitDy=0;fontSize=20;" edge="1" parent="1" source="C6v04_ZCaa2lR-fAz-w3-123" target="C6v04_ZCaa2lR-fAz-w3-123">
          <mxGeometry relative="1" as="geometry" />
        </mxCell>
        <mxCell id="C6v04_ZCaa2lR-fAz-w3-126" value="" style="endArrow=classic;html=1;rounded=0;exitX=0.833;exitY=0.5;exitDx=0;exitDy=0;exitPerimeter=0;fontSize=20;" edge="1" parent="1">
          <mxGeometry width="50" height="50" relative="1" as="geometry">
            <mxPoint x="220" y="682.35" as="sourcePoint" />
            <mxPoint x="340" y="682.35" as="targetPoint" />
          </mxGeometry>
        </mxCell>
        <mxCell id="C6v04_ZCaa2lR-fAz-w3-127" value="" style="rounded=1;whiteSpace=wrap;html=1;fontSize=20;" vertex="1" parent="1">
          <mxGeometry x="720" y="639.04" width="120" height="80" as="geometry" />
        </mxCell>
        <mxCell id="C6v04_ZCaa2lR-fAz-w3-128" value="" style="endArrow=none;dashed=1;html=1;rounded=0;entryX=0.667;entryY=0;entryDx=0;entryDy=0;entryPerimeter=0;exitX=0.664;exitY=1.012;exitDx=0;exitDy=0;exitPerimeter=0;fontSize=20;" edge="1" parent="1" source="C6v04_ZCaa2lR-fAz-w3-127" target="C6v04_ZCaa2lR-fAz-w3-127">
          <mxGeometry width="50" height="50" relative="1" as="geometry">
            <mxPoint x="770" y="849.04" as="sourcePoint" />
            <mxPoint x="1030" y="869.0400000000001" as="targetPoint" />
            <Array as="points">
              <mxPoint x="800" y="679.04" />
            </Array>
          </mxGeometry>
        </mxCell>
        <mxCell id="C6v04_ZCaa2lR-fAz-w3-129" value="250" style="text;html=1;strokeColor=none;fillColor=none;align=center;verticalAlign=middle;whiteSpace=wrap;rounded=0;fontSize=20;" vertex="1" parent="1">
          <mxGeometry x="740" y="665" width="60" height="30" as="geometry" />
        </mxCell>
        <mxCell id="C6v04_ZCaa2lR-fAz-w3-130" style="edgeStyle=orthogonalEdgeStyle;rounded=0;orthogonalLoop=1;jettySize=auto;html=1;exitX=0.5;exitY=1;exitDx=0;exitDy=0;fontSize=20;" edge="1" parent="1" source="C6v04_ZCaa2lR-fAz-w3-129" target="C6v04_ZCaa2lR-fAz-w3-129">
          <mxGeometry relative="1" as="geometry" />
        </mxCell>
        <mxCell id="C6v04_ZCaa2lR-fAz-w3-131" value="" style="endArrow=classic;html=1;rounded=0;exitX=0.833;exitY=0.5;exitDx=0;exitDy=0;exitPerimeter=0;fontSize=20;" edge="1" parent="1">
          <mxGeometry width="50" height="50" relative="1" as="geometry">
            <mxPoint x="620" y="681.49" as="sourcePoint" />
            <mxPoint x="740" y="681.49" as="targetPoint" />
          </mxGeometry>
        </mxCell>
        <mxCell id="C6v04_ZCaa2lR-fAz-w3-132" value="" style="rounded=1;whiteSpace=wrap;html=1;fontSize=20;" vertex="1" parent="1">
          <mxGeometry x="920" y="638.95" width="120" height="80" as="geometry" />
        </mxCell>
        <mxCell id="C6v04_ZCaa2lR-fAz-w3-133" value="" style="endArrow=none;dashed=1;html=1;rounded=0;entryX=0.667;entryY=0;entryDx=0;entryDy=0;entryPerimeter=0;exitX=0.664;exitY=1.012;exitDx=0;exitDy=0;exitPerimeter=0;fontSize=20;" edge="1" parent="1" source="C6v04_ZCaa2lR-fAz-w3-132" target="C6v04_ZCaa2lR-fAz-w3-132">
          <mxGeometry width="50" height="50" relative="1" as="geometry">
            <mxPoint x="970" y="848.95" as="sourcePoint" />
            <mxPoint x="1230" y="868.95" as="targetPoint" />
            <Array as="points">
              <mxPoint x="1000" y="678.95" />
            </Array>
          </mxGeometry>
        </mxCell>
        <mxCell id="C6v04_ZCaa2lR-fAz-w3-134" value="" style="rounded=1;whiteSpace=wrap;html=1;fontSize=20;" vertex="1" parent="1">
          <mxGeometry x="1120" y="637.0300000000001" width="120" height="80" as="geometry" />
        </mxCell>
        <mxCell id="C6v04_ZCaa2lR-fAz-w3-135" value="" style="endArrow=none;dashed=1;html=1;rounded=0;entryX=0.667;entryY=0;entryDx=0;entryDy=0;entryPerimeter=0;exitX=0.664;exitY=1.012;exitDx=0;exitDy=0;exitPerimeter=0;fontSize=20;" edge="1" parent="1" source="C6v04_ZCaa2lR-fAz-w3-134" target="C6v04_ZCaa2lR-fAz-w3-134">
          <mxGeometry width="50" height="50" relative="1" as="geometry">
            <mxPoint x="1170" y="847.0300000000001" as="sourcePoint" />
            <mxPoint x="1430" y="867.0300000000001" as="targetPoint" />
            <Array as="points">
              <mxPoint x="1200" y="677.0300000000001" />
            </Array>
          </mxGeometry>
        </mxCell>
        <mxCell id="C6v04_ZCaa2lR-fAz-w3-136" value="300" style="text;html=1;strokeColor=none;fillColor=none;align=center;verticalAlign=middle;whiteSpace=wrap;rounded=0;fontSize=20;" vertex="1" parent="1">
          <mxGeometry x="930" y="663.95" width="60" height="30" as="geometry" />
        </mxCell>
        <mxCell id="C6v04_ZCaa2lR-fAz-w3-137" value="400" style="text;html=1;strokeColor=none;fillColor=none;align=center;verticalAlign=middle;whiteSpace=wrap;rounded=0;fontSize=20;" vertex="1" parent="1">
          <mxGeometry x="1130" y="662.0300000000001" width="60" height="30" as="geometry" />
        </mxCell>
        <mxCell id="C6v04_ZCaa2lR-fAz-w3-138" value="" style="endArrow=classic;html=1;rounded=0;exitX=0.833;exitY=0.5;exitDx=0;exitDy=0;exitPerimeter=0;fontSize=20;" edge="1" parent="1">
          <mxGeometry width="50" height="50" relative="1" as="geometry">
            <mxPoint x="1010" y="676.69" as="sourcePoint" />
            <mxPoint x="1130" y="676.69" as="targetPoint" />
          </mxGeometry>
        </mxCell>
        <mxCell id="C6v04_ZCaa2lR-fAz-w3-139" value="" style="shape=link;html=1;rounded=0;fontSize=20;" edge="1" parent="1">
          <mxGeometry width="100" relative="1" as="geometry">
            <mxPoint x="1500" y="718.95" as="sourcePoint" />
            <mxPoint x="1540" y="718.95" as="targetPoint" />
          </mxGeometry>
        </mxCell>
        <mxCell id="C6v04_ZCaa2lR-fAz-w3-140" value="" style="rounded=1;whiteSpace=wrap;html=1;fontSize=20;" vertex="1" parent="1">
          <mxGeometry x="1320" y="636.07" width="120" height="80" as="geometry" />
        </mxCell>
        <mxCell id="C6v04_ZCaa2lR-fAz-w3-141" value="" style="endArrow=none;dashed=1;html=1;rounded=0;entryX=0.667;entryY=0;entryDx=0;entryDy=0;entryPerimeter=0;exitX=0.664;exitY=1.012;exitDx=0;exitDy=0;exitPerimeter=0;fontSize=20;" edge="1" parent="1" source="C6v04_ZCaa2lR-fAz-w3-140" target="C6v04_ZCaa2lR-fAz-w3-140">
          <mxGeometry width="50" height="50" relative="1" as="geometry">
            <mxPoint x="1370" y="846.07" as="sourcePoint" />
            <mxPoint x="1630" y="866.07" as="targetPoint" />
            <Array as="points">
              <mxPoint x="1400" y="676.07" />
            </Array>
          </mxGeometry>
        </mxCell>
        <mxCell id="C6v04_ZCaa2lR-fAz-w3-142" value="500" style="text;html=1;strokeColor=none;fillColor=none;align=center;verticalAlign=middle;whiteSpace=wrap;rounded=0;fontSize=20;" vertex="1" parent="1">
          <mxGeometry x="1330" y="661.07" width="60" height="30" as="geometry" />
        </mxCell>
        <mxCell id="C6v04_ZCaa2lR-fAz-w3-143" value="" style="endArrow=classic;html=1;rounded=0;exitX=0.833;exitY=0.5;exitDx=0;exitDy=0;exitPerimeter=0;fontSize=20;" edge="1" parent="1">
          <mxGeometry width="50" height="50" relative="1" as="geometry">
            <mxPoint x="1220" y="675.83" as="sourcePoint" />
            <mxPoint x="1340" y="675.83" as="targetPoint" />
          </mxGeometry>
        </mxCell>
        <mxCell id="C6v04_ZCaa2lR-fAz-w3-144" value="" style="endArrow=none;html=1;rounded=0;exitX=0.833;exitY=0.524;exitDx=0;exitDy=0;exitPerimeter=0;fontSize=20;" edge="1" parent="1">
          <mxGeometry width="50" height="50" relative="1" as="geometry">
            <mxPoint x="1420" y="676.07" as="sourcePoint" />
            <mxPoint x="1520" y="716.07" as="targetPoint" />
            <Array as="points">
              <mxPoint x="1520" y="676.07" />
            </Array>
          </mxGeometry>
        </mxCell>
        <mxCell id="C6v04_ZCaa2lR-fAz-w3-158" value="" style="endArrow=classic;html=1;rounded=0;exitX=0.833;exitY=0.5;exitDx=0;exitDy=0;exitPerimeter=0;fontSize=20;" edge="1" parent="1">
          <mxGeometry width="50" height="50" relative="1" as="geometry">
            <mxPoint x="820" y="679.75" as="sourcePoint" />
            <mxPoint x="940" y="679.75" as="targetPoint" />
          </mxGeometry>
        </mxCell>
        <mxCell id="C6v04_ZCaa2lR-fAz-w3-161" value="Hapus node depan" style="text;html=1;strokeColor=none;fillColor=none;align=center;verticalAlign=middle;whiteSpace=wrap;rounded=0;fontSize=20;fontStyle=1" vertex="1" parent="1">
          <mxGeometry x="120" y="810.96" width="200" height="30" as="geometry" />
        </mxCell>
        <mxCell id="C6v04_ZCaa2lR-fAz-w3-162" value="" style="rounded=1;whiteSpace=wrap;html=1;fontSize=20;" vertex="1" parent="1">
          <mxGeometry x="120" y="846.81" width="120" height="80" as="geometry" />
        </mxCell>
        <mxCell id="C6v04_ZCaa2lR-fAz-w3-163" value="" style="endArrow=none;dashed=1;html=1;rounded=0;entryX=0.667;entryY=0;entryDx=0;entryDy=0;entryPerimeter=0;exitX=0.664;exitY=1.012;exitDx=0;exitDy=0;exitPerimeter=0;fontSize=20;" edge="1" parent="1" source="C6v04_ZCaa2lR-fAz-w3-162" target="C6v04_ZCaa2lR-fAz-w3-162">
          <mxGeometry width="50" height="50" relative="1" as="geometry">
            <mxPoint x="170" y="1056.81" as="sourcePoint" />
            <mxPoint x="430" y="1076.81" as="targetPoint" />
            <Array as="points">
              <mxPoint x="200" y="886.81" />
            </Array>
          </mxGeometry>
        </mxCell>
        <mxCell id="C6v04_ZCaa2lR-fAz-w3-164" value="" style="rounded=1;whiteSpace=wrap;html=1;fontSize=20;" vertex="1" parent="1">
          <mxGeometry x="320" y="845.8499999999999" width="120" height="80" as="geometry" />
        </mxCell>
        <mxCell id="C6v04_ZCaa2lR-fAz-w3-165" value="" style="endArrow=none;dashed=1;html=1;rounded=0;entryX=0.667;entryY=0;entryDx=0;entryDy=0;entryPerimeter=0;exitX=0.664;exitY=1.012;exitDx=0;exitDy=0;exitPerimeter=0;fontSize=20;" edge="1" parent="1" source="C6v04_ZCaa2lR-fAz-w3-164" target="C6v04_ZCaa2lR-fAz-w3-164">
          <mxGeometry width="50" height="50" relative="1" as="geometry">
            <mxPoint x="370" y="1055.85" as="sourcePoint" />
            <mxPoint x="630" y="1075.8500000000001" as="targetPoint" />
            <Array as="points">
              <mxPoint x="400" y="885.8499999999999" />
            </Array>
          </mxGeometry>
        </mxCell>
        <mxCell id="C6v04_ZCaa2lR-fAz-w3-166" value="100" style="text;html=1;strokeColor=none;fillColor=none;align=center;verticalAlign=middle;whiteSpace=wrap;rounded=0;fontSize=20;" vertex="1" parent="1">
          <mxGeometry x="130" y="871.81" width="60" height="30" as="geometry" />
        </mxCell>
        <mxCell id="C6v04_ZCaa2lR-fAz-w3-167" value="200" style="text;html=1;strokeColor=none;fillColor=none;align=center;verticalAlign=middle;whiteSpace=wrap;rounded=0;fontSize=20;" vertex="1" parent="1">
          <mxGeometry x="340" y="871.81" width="60" height="30" as="geometry" />
        </mxCell>
        <mxCell id="C6v04_ZCaa2lR-fAz-w3-168" value="" style="endArrow=classic;html=1;rounded=0;exitX=0.833;exitY=0.5;exitDx=0;exitDy=0;exitPerimeter=0;fontSize=20;" edge="1" parent="1" source="C6v04_ZCaa2lR-fAz-w3-162" target="C6v04_ZCaa2lR-fAz-w3-167">
          <mxGeometry width="50" height="50" relative="1" as="geometry">
            <mxPoint x="280" y="1006.81" as="sourcePoint" />
            <mxPoint x="330" y="956.81" as="targetPoint" />
          </mxGeometry>
        </mxCell>
        <mxCell id="C6v04_ZCaa2lR-fAz-w3-169" style="edgeStyle=orthogonalEdgeStyle;rounded=0;orthogonalLoop=1;jettySize=auto;html=1;exitX=0.5;exitY=1;exitDx=0;exitDy=0;fontSize=20;" edge="1" parent="1" source="C6v04_ZCaa2lR-fAz-w3-167" target="C6v04_ZCaa2lR-fAz-w3-167">
          <mxGeometry relative="1" as="geometry" />
        </mxCell>
        <mxCell id="C6v04_ZCaa2lR-fAz-w3-170" value="" style="rounded=1;whiteSpace=wrap;html=1;fontSize=20;" vertex="1" parent="1">
          <mxGeometry x="520" y="842.97" width="120" height="80" as="geometry" />
        </mxCell>
        <mxCell id="C6v04_ZCaa2lR-fAz-w3-171" value="" style="endArrow=none;dashed=1;html=1;rounded=0;entryX=0.667;entryY=0;entryDx=0;entryDy=0;entryPerimeter=0;exitX=0.664;exitY=1.012;exitDx=0;exitDy=0;exitPerimeter=0;fontSize=20;" edge="1" parent="1" source="C6v04_ZCaa2lR-fAz-w3-170" target="C6v04_ZCaa2lR-fAz-w3-170">
          <mxGeometry width="50" height="50" relative="1" as="geometry">
            <mxPoint x="570" y="1052.97" as="sourcePoint" />
            <mxPoint x="830" y="1072.97" as="targetPoint" />
            <Array as="points">
              <mxPoint x="600" y="882.97" />
            </Array>
          </mxGeometry>
        </mxCell>
        <mxCell id="C6v04_ZCaa2lR-fAz-w3-172" value="250" style="text;html=1;strokeColor=none;fillColor=none;align=center;verticalAlign=middle;whiteSpace=wrap;rounded=0;fontSize=20;" vertex="1" parent="1">
          <mxGeometry x="540" y="868.9300000000001" width="60" height="30" as="geometry" />
        </mxCell>
        <mxCell id="C6v04_ZCaa2lR-fAz-w3-173" style="edgeStyle=orthogonalEdgeStyle;rounded=0;orthogonalLoop=1;jettySize=auto;html=1;exitX=0.5;exitY=1;exitDx=0;exitDy=0;fontSize=20;" edge="1" parent="1" source="C6v04_ZCaa2lR-fAz-w3-172" target="C6v04_ZCaa2lR-fAz-w3-172">
          <mxGeometry relative="1" as="geometry" />
        </mxCell>
        <mxCell id="C6v04_ZCaa2lR-fAz-w3-174" value="" style="endArrow=classic;html=1;rounded=0;exitX=0.833;exitY=0.5;exitDx=0;exitDy=0;exitPerimeter=0;fontSize=20;" edge="1" parent="1">
          <mxGeometry width="50" height="50" relative="1" as="geometry">
            <mxPoint x="420" y="885.4200000000001" as="sourcePoint" />
            <mxPoint x="540" y="885.4200000000001" as="targetPoint" />
          </mxGeometry>
        </mxCell>
        <mxCell id="C6v04_ZCaa2lR-fAz-w3-175" value="" style="rounded=1;whiteSpace=wrap;html=1;fontSize=20;" vertex="1" parent="1">
          <mxGeometry x="720" y="842.8800000000001" width="120" height="80" as="geometry" />
        </mxCell>
        <mxCell id="C6v04_ZCaa2lR-fAz-w3-176" value="" style="endArrow=none;dashed=1;html=1;rounded=0;entryX=0.667;entryY=0;entryDx=0;entryDy=0;entryPerimeter=0;exitX=0.664;exitY=1.012;exitDx=0;exitDy=0;exitPerimeter=0;fontSize=20;" edge="1" parent="1" source="C6v04_ZCaa2lR-fAz-w3-175" target="C6v04_ZCaa2lR-fAz-w3-175">
          <mxGeometry width="50" height="50" relative="1" as="geometry">
            <mxPoint x="770" y="1052.88" as="sourcePoint" />
            <mxPoint x="1030" y="1072.88" as="targetPoint" />
            <Array as="points">
              <mxPoint x="800" y="882.8800000000001" />
            </Array>
          </mxGeometry>
        </mxCell>
        <mxCell id="C6v04_ZCaa2lR-fAz-w3-177" value="" style="rounded=1;whiteSpace=wrap;html=1;fontSize=20;" vertex="1" parent="1">
          <mxGeometry x="920" y="840.96" width="120" height="80" as="geometry" />
        </mxCell>
        <mxCell id="C6v04_ZCaa2lR-fAz-w3-178" value="" style="endArrow=none;dashed=1;html=1;rounded=0;entryX=0.667;entryY=0;entryDx=0;entryDy=0;entryPerimeter=0;exitX=0.664;exitY=1.012;exitDx=0;exitDy=0;exitPerimeter=0;fontSize=20;" edge="1" parent="1" source="C6v04_ZCaa2lR-fAz-w3-177" target="C6v04_ZCaa2lR-fAz-w3-177">
          <mxGeometry width="50" height="50" relative="1" as="geometry">
            <mxPoint x="970" y="1050.96" as="sourcePoint" />
            <mxPoint x="1230" y="1070.96" as="targetPoint" />
            <Array as="points">
              <mxPoint x="1000" y="880.96" />
            </Array>
          </mxGeometry>
        </mxCell>
        <mxCell id="C6v04_ZCaa2lR-fAz-w3-179" value="300" style="text;html=1;strokeColor=none;fillColor=none;align=center;verticalAlign=middle;whiteSpace=wrap;rounded=0;fontSize=20;" vertex="1" parent="1">
          <mxGeometry x="730" y="867.8800000000001" width="60" height="30" as="geometry" />
        </mxCell>
        <mxCell id="C6v04_ZCaa2lR-fAz-w3-180" value="400" style="text;html=1;strokeColor=none;fillColor=none;align=center;verticalAlign=middle;whiteSpace=wrap;rounded=0;fontSize=20;" vertex="1" parent="1">
          <mxGeometry x="930" y="865.96" width="60" height="30" as="geometry" />
        </mxCell>
        <mxCell id="C6v04_ZCaa2lR-fAz-w3-181" value="" style="endArrow=classic;html=1;rounded=0;exitX=0.833;exitY=0.5;exitDx=0;exitDy=0;exitPerimeter=0;fontSize=20;" edge="1" parent="1">
          <mxGeometry width="50" height="50" relative="1" as="geometry">
            <mxPoint x="810" y="880.6200000000001" as="sourcePoint" />
            <mxPoint x="930" y="880.6200000000001" as="targetPoint" />
          </mxGeometry>
        </mxCell>
        <mxCell id="C6v04_ZCaa2lR-fAz-w3-182" value="" style="shape=link;html=1;rounded=0;fontSize=20;" edge="1" parent="1">
          <mxGeometry width="100" relative="1" as="geometry">
            <mxPoint x="1300" y="922.8800000000001" as="sourcePoint" />
            <mxPoint x="1340" y="922.8800000000001" as="targetPoint" />
          </mxGeometry>
        </mxCell>
        <mxCell id="C6v04_ZCaa2lR-fAz-w3-183" value="" style="rounded=1;whiteSpace=wrap;html=1;fontSize=20;" vertex="1" parent="1">
          <mxGeometry x="1120" y="840" width="120" height="80" as="geometry" />
        </mxCell>
        <mxCell id="C6v04_ZCaa2lR-fAz-w3-184" value="" style="endArrow=none;dashed=1;html=1;rounded=0;entryX=0.667;entryY=0;entryDx=0;entryDy=0;entryPerimeter=0;exitX=0.664;exitY=1.012;exitDx=0;exitDy=0;exitPerimeter=0;fontSize=20;" edge="1" parent="1" source="C6v04_ZCaa2lR-fAz-w3-183" target="C6v04_ZCaa2lR-fAz-w3-183">
          <mxGeometry width="50" height="50" relative="1" as="geometry">
            <mxPoint x="1170" y="1050" as="sourcePoint" />
            <mxPoint x="1430" y="1070" as="targetPoint" />
            <Array as="points">
              <mxPoint x="1200" y="880" />
            </Array>
          </mxGeometry>
        </mxCell>
        <mxCell id="C6v04_ZCaa2lR-fAz-w3-185" value="500" style="text;html=1;strokeColor=none;fillColor=none;align=center;verticalAlign=middle;whiteSpace=wrap;rounded=0;fontSize=20;" vertex="1" parent="1">
          <mxGeometry x="1130" y="865" width="60" height="30" as="geometry" />
        </mxCell>
        <mxCell id="C6v04_ZCaa2lR-fAz-w3-186" value="" style="endArrow=classic;html=1;rounded=0;exitX=0.833;exitY=0.5;exitDx=0;exitDy=0;exitPerimeter=0;fontSize=20;" edge="1" parent="1">
          <mxGeometry width="50" height="50" relative="1" as="geometry">
            <mxPoint x="1020" y="879.76" as="sourcePoint" />
            <mxPoint x="1140" y="879.76" as="targetPoint" />
          </mxGeometry>
        </mxCell>
        <mxCell id="C6v04_ZCaa2lR-fAz-w3-187" value="" style="endArrow=none;html=1;rounded=0;exitX=0.833;exitY=0.524;exitDx=0;exitDy=0;exitPerimeter=0;fontSize=20;" edge="1" parent="1">
          <mxGeometry width="50" height="50" relative="1" as="geometry">
            <mxPoint x="1220" y="880" as="sourcePoint" />
            <mxPoint x="1320" y="920" as="targetPoint" />
            <Array as="points">
              <mxPoint x="1320" y="880" />
            </Array>
          </mxGeometry>
        </mxCell>
        <mxCell id="C6v04_ZCaa2lR-fAz-w3-188" value="" style="endArrow=classic;html=1;rounded=0;exitX=0.833;exitY=0.5;exitDx=0;exitDy=0;exitPerimeter=0;fontSize=20;" edge="1" parent="1">
          <mxGeometry width="50" height="50" relative="1" as="geometry">
            <mxPoint x="620" y="883.6800000000001" as="sourcePoint" />
            <mxPoint x="740" y="883.6800000000001" as="targetPoint" />
          </mxGeometry>
        </mxCell>
        <mxCell id="C6v04_ZCaa2lR-fAz-w3-189" value="Hapus node belakang" style="text;html=1;strokeColor=none;fillColor=none;align=center;verticalAlign=middle;whiteSpace=wrap;rounded=0;fontSize=20;fontStyle=1" vertex="1" parent="1">
          <mxGeometry x="120" y="1000" width="210" height="30" as="geometry" />
        </mxCell>
        <mxCell id="C6v04_ZCaa2lR-fAz-w3-190" value="" style="rounded=1;whiteSpace=wrap;html=1;fontSize=20;" vertex="1" parent="1">
          <mxGeometry x="120" y="1045.85" width="120" height="80" as="geometry" />
        </mxCell>
        <mxCell id="C6v04_ZCaa2lR-fAz-w3-191" value="" style="endArrow=none;dashed=1;html=1;rounded=0;entryX=0.667;entryY=0;entryDx=0;entryDy=0;entryPerimeter=0;exitX=0.664;exitY=1.012;exitDx=0;exitDy=0;exitPerimeter=0;fontSize=20;" edge="1" parent="1" source="C6v04_ZCaa2lR-fAz-w3-190" target="C6v04_ZCaa2lR-fAz-w3-190">
          <mxGeometry width="50" height="50" relative="1" as="geometry">
            <mxPoint x="170" y="1255.85" as="sourcePoint" />
            <mxPoint x="430" y="1275.85" as="targetPoint" />
            <Array as="points">
              <mxPoint x="200" y="1085.85" />
            </Array>
          </mxGeometry>
        </mxCell>
        <mxCell id="C6v04_ZCaa2lR-fAz-w3-192" value="" style="rounded=1;whiteSpace=wrap;html=1;fontSize=20;" vertex="1" parent="1">
          <mxGeometry x="320" y="1044.8899999999999" width="120" height="80" as="geometry" />
        </mxCell>
        <mxCell id="C6v04_ZCaa2lR-fAz-w3-193" value="" style="endArrow=none;dashed=1;html=1;rounded=0;entryX=0.667;entryY=0;entryDx=0;entryDy=0;entryPerimeter=0;exitX=0.664;exitY=1.012;exitDx=0;exitDy=0;exitPerimeter=0;fontSize=20;" edge="1" parent="1" source="C6v04_ZCaa2lR-fAz-w3-192" target="C6v04_ZCaa2lR-fAz-w3-192">
          <mxGeometry width="50" height="50" relative="1" as="geometry">
            <mxPoint x="370" y="1254.8899999999999" as="sourcePoint" />
            <mxPoint x="630" y="1274.89" as="targetPoint" />
            <Array as="points">
              <mxPoint x="400" y="1084.8899999999999" />
            </Array>
          </mxGeometry>
        </mxCell>
        <mxCell id="C6v04_ZCaa2lR-fAz-w3-194" value="100" style="text;html=1;strokeColor=none;fillColor=none;align=center;verticalAlign=middle;whiteSpace=wrap;rounded=0;fontSize=20;" vertex="1" parent="1">
          <mxGeometry x="130" y="1070.85" width="60" height="30" as="geometry" />
        </mxCell>
        <mxCell id="C6v04_ZCaa2lR-fAz-w3-195" value="200" style="text;html=1;strokeColor=none;fillColor=none;align=center;verticalAlign=middle;whiteSpace=wrap;rounded=0;fontSize=20;" vertex="1" parent="1">
          <mxGeometry x="340" y="1070.85" width="60" height="30" as="geometry" />
        </mxCell>
        <mxCell id="C6v04_ZCaa2lR-fAz-w3-196" value="" style="endArrow=classic;html=1;rounded=0;exitX=0.833;exitY=0.5;exitDx=0;exitDy=0;exitPerimeter=0;fontSize=20;" edge="1" parent="1" source="C6v04_ZCaa2lR-fAz-w3-190" target="C6v04_ZCaa2lR-fAz-w3-195">
          <mxGeometry width="50" height="50" relative="1" as="geometry">
            <mxPoint x="280" y="1205.85" as="sourcePoint" />
            <mxPoint x="330" y="1155.85" as="targetPoint" />
          </mxGeometry>
        </mxCell>
        <mxCell id="C6v04_ZCaa2lR-fAz-w3-197" style="edgeStyle=orthogonalEdgeStyle;rounded=0;orthogonalLoop=1;jettySize=auto;html=1;exitX=0.5;exitY=1;exitDx=0;exitDy=0;fontSize=20;" edge="1" parent="1" source="C6v04_ZCaa2lR-fAz-w3-195" target="C6v04_ZCaa2lR-fAz-w3-195">
          <mxGeometry relative="1" as="geometry" />
        </mxCell>
        <mxCell id="C6v04_ZCaa2lR-fAz-w3-198" value="" style="rounded=1;whiteSpace=wrap;html=1;fontSize=20;" vertex="1" parent="1">
          <mxGeometry x="520" y="1042.01" width="120" height="80" as="geometry" />
        </mxCell>
        <mxCell id="C6v04_ZCaa2lR-fAz-w3-199" value="" style="endArrow=none;dashed=1;html=1;rounded=0;entryX=0.667;entryY=0;entryDx=0;entryDy=0;entryPerimeter=0;exitX=0.664;exitY=1.012;exitDx=0;exitDy=0;exitPerimeter=0;fontSize=20;" edge="1" parent="1" source="C6v04_ZCaa2lR-fAz-w3-198" target="C6v04_ZCaa2lR-fAz-w3-198">
          <mxGeometry width="50" height="50" relative="1" as="geometry">
            <mxPoint x="570" y="1252.01" as="sourcePoint" />
            <mxPoint x="830" y="1272.01" as="targetPoint" />
            <Array as="points">
              <mxPoint x="600" y="1082.01" />
            </Array>
          </mxGeometry>
        </mxCell>
        <mxCell id="C6v04_ZCaa2lR-fAz-w3-200" value="250" style="text;html=1;strokeColor=none;fillColor=none;align=center;verticalAlign=middle;whiteSpace=wrap;rounded=0;fontSize=20;" vertex="1" parent="1">
          <mxGeometry x="540" y="1067.97" width="60" height="30" as="geometry" />
        </mxCell>
        <mxCell id="C6v04_ZCaa2lR-fAz-w3-201" style="edgeStyle=orthogonalEdgeStyle;rounded=0;orthogonalLoop=1;jettySize=auto;html=1;exitX=0.5;exitY=1;exitDx=0;exitDy=0;fontSize=20;" edge="1" parent="1" source="C6v04_ZCaa2lR-fAz-w3-200" target="C6v04_ZCaa2lR-fAz-w3-200">
          <mxGeometry relative="1" as="geometry" />
        </mxCell>
        <mxCell id="C6v04_ZCaa2lR-fAz-w3-202" value="" style="endArrow=classic;html=1;rounded=0;exitX=0.833;exitY=0.5;exitDx=0;exitDy=0;exitPerimeter=0;fontSize=20;" edge="1" parent="1">
          <mxGeometry width="50" height="50" relative="1" as="geometry">
            <mxPoint x="420" y="1084.46" as="sourcePoint" />
            <mxPoint x="540" y="1084.46" as="targetPoint" />
          </mxGeometry>
        </mxCell>
        <mxCell id="C6v04_ZCaa2lR-fAz-w3-203" value="" style="rounded=1;whiteSpace=wrap;html=1;fontSize=20;" vertex="1" parent="1">
          <mxGeometry x="720" y="1041.92" width="120" height="80" as="geometry" />
        </mxCell>
        <mxCell id="C6v04_ZCaa2lR-fAz-w3-204" value="" style="endArrow=none;dashed=1;html=1;rounded=0;entryX=0.667;entryY=0;entryDx=0;entryDy=0;entryPerimeter=0;exitX=0.664;exitY=1.012;exitDx=0;exitDy=0;exitPerimeter=0;fontSize=20;" edge="1" parent="1" source="C6v04_ZCaa2lR-fAz-w3-203" target="C6v04_ZCaa2lR-fAz-w3-203">
          <mxGeometry width="50" height="50" relative="1" as="geometry">
            <mxPoint x="770" y="1251.92" as="sourcePoint" />
            <mxPoint x="1030" y="1271.92" as="targetPoint" />
            <Array as="points">
              <mxPoint x="800" y="1081.92" />
            </Array>
          </mxGeometry>
        </mxCell>
        <mxCell id="C6v04_ZCaa2lR-fAz-w3-205" value="" style="rounded=1;whiteSpace=wrap;html=1;fontSize=20;" vertex="1" parent="1">
          <mxGeometry x="920" y="1040" width="120" height="80" as="geometry" />
        </mxCell>
        <mxCell id="C6v04_ZCaa2lR-fAz-w3-206" value="" style="endArrow=none;dashed=1;html=1;rounded=0;entryX=0.667;entryY=0;entryDx=0;entryDy=0;entryPerimeter=0;exitX=0.664;exitY=1.012;exitDx=0;exitDy=0;exitPerimeter=0;fontSize=20;" edge="1" parent="1" source="C6v04_ZCaa2lR-fAz-w3-205" target="C6v04_ZCaa2lR-fAz-w3-205">
          <mxGeometry width="50" height="50" relative="1" as="geometry">
            <mxPoint x="970" y="1250" as="sourcePoint" />
            <mxPoint x="1230" y="1270" as="targetPoint" />
            <Array as="points">
              <mxPoint x="1000" y="1080" />
            </Array>
          </mxGeometry>
        </mxCell>
        <mxCell id="C6v04_ZCaa2lR-fAz-w3-207" value="300" style="text;html=1;strokeColor=none;fillColor=none;align=center;verticalAlign=middle;whiteSpace=wrap;rounded=0;fontSize=20;" vertex="1" parent="1">
          <mxGeometry x="730" y="1066.92" width="60" height="30" as="geometry" />
        </mxCell>
        <mxCell id="C6v04_ZCaa2lR-fAz-w3-208" value="400" style="text;html=1;strokeColor=none;fillColor=none;align=center;verticalAlign=middle;whiteSpace=wrap;rounded=0;fontSize=20;" vertex="1" parent="1">
          <mxGeometry x="930" y="1065" width="60" height="30" as="geometry" />
        </mxCell>
        <mxCell id="C6v04_ZCaa2lR-fAz-w3-209" value="" style="endArrow=classic;html=1;rounded=0;exitX=0.833;exitY=0.5;exitDx=0;exitDy=0;exitPerimeter=0;fontSize=20;" edge="1" parent="1">
          <mxGeometry width="50" height="50" relative="1" as="geometry">
            <mxPoint x="810" y="1079.66" as="sourcePoint" />
            <mxPoint x="930" y="1079.66" as="targetPoint" />
          </mxGeometry>
        </mxCell>
        <mxCell id="C6v04_ZCaa2lR-fAz-w3-210" value="" style="endArrow=classic;html=1;rounded=0;exitX=0.833;exitY=0.5;exitDx=0;exitDy=0;exitPerimeter=0;fontSize=20;" edge="1" parent="1">
          <mxGeometry width="50" height="50" relative="1" as="geometry">
            <mxPoint x="620" y="1082.72" as="sourcePoint" />
            <mxPoint x="740" y="1082.72" as="targetPoint" />
          </mxGeometry>
        </mxCell>
        <mxCell id="C6v04_ZCaa2lR-fAz-w3-211" value="" style="endArrow=none;html=1;rounded=0;exitX=0.833;exitY=0.524;exitDx=0;exitDy=0;exitPerimeter=0;fontSize=20;" edge="1" parent="1">
          <mxGeometry width="50" height="50" relative="1" as="geometry">
            <mxPoint x="1020" y="1080" as="sourcePoint" />
            <mxPoint x="1120" y="1120" as="targetPoint" />
            <Array as="points">
              <mxPoint x="1120" y="1080" />
            </Array>
          </mxGeometry>
        </mxCell>
        <mxCell id="C6v04_ZCaa2lR-fAz-w3-212" value="" style="shape=link;html=1;rounded=0;fontSize=20;" edge="1" parent="1">
          <mxGeometry width="100" relative="1" as="geometry">
            <mxPoint x="1100" y="1122.0100000000002" as="sourcePoint" />
            <mxPoint x="1140" y="1122.0100000000002" as="targetPoint" />
          </mxGeometry>
        </mxCell>
        <mxCell id="C6v04_ZCaa2lR-fAz-w3-213" value="Hapus node yg memiliki data 300" style="text;html=1;strokeColor=none;fillColor=none;align=center;verticalAlign=middle;whiteSpace=wrap;rounded=0;fontSize=20;fontStyle=1" vertex="1" parent="1">
          <mxGeometry x="120" y="1205.88" width="330" height="30" as="geometry" />
        </mxCell>
        <mxCell id="C6v04_ZCaa2lR-fAz-w3-214" value="" style="rounded=1;whiteSpace=wrap;html=1;fontSize=20;" vertex="1" parent="1">
          <mxGeometry x="120" y="1236.84" width="120" height="80" as="geometry" />
        </mxCell>
        <mxCell id="C6v04_ZCaa2lR-fAz-w3-215" value="" style="endArrow=none;dashed=1;html=1;rounded=0;entryX=0.667;entryY=0;entryDx=0;entryDy=0;entryPerimeter=0;exitX=0.664;exitY=1.012;exitDx=0;exitDy=0;exitPerimeter=0;fontSize=20;" edge="1" parent="1" source="C6v04_ZCaa2lR-fAz-w3-214" target="C6v04_ZCaa2lR-fAz-w3-214">
          <mxGeometry width="50" height="50" relative="1" as="geometry">
            <mxPoint x="170" y="1446.84" as="sourcePoint" />
            <mxPoint x="430" y="1466.84" as="targetPoint" />
            <Array as="points">
              <mxPoint x="200" y="1276.84" />
            </Array>
          </mxGeometry>
        </mxCell>
        <mxCell id="C6v04_ZCaa2lR-fAz-w3-216" value="" style="rounded=1;whiteSpace=wrap;html=1;fontSize=20;" vertex="1" parent="1">
          <mxGeometry x="320" y="1235.8799999999999" width="120" height="80" as="geometry" />
        </mxCell>
        <mxCell id="C6v04_ZCaa2lR-fAz-w3-217" value="" style="endArrow=none;dashed=1;html=1;rounded=0;entryX=0.667;entryY=0;entryDx=0;entryDy=0;entryPerimeter=0;exitX=0.664;exitY=1.012;exitDx=0;exitDy=0;exitPerimeter=0;fontSize=20;" edge="1" parent="1" source="C6v04_ZCaa2lR-fAz-w3-216" target="C6v04_ZCaa2lR-fAz-w3-216">
          <mxGeometry width="50" height="50" relative="1" as="geometry">
            <mxPoint x="370" y="1445.8799999999999" as="sourcePoint" />
            <mxPoint x="630" y="1465.88" as="targetPoint" />
            <Array as="points">
              <mxPoint x="400" y="1275.8799999999999" />
            </Array>
          </mxGeometry>
        </mxCell>
        <mxCell id="C6v04_ZCaa2lR-fAz-w3-218" value="100" style="text;html=1;strokeColor=none;fillColor=none;align=center;verticalAlign=middle;whiteSpace=wrap;rounded=0;fontSize=20;" vertex="1" parent="1">
          <mxGeometry x="130" y="1261.84" width="60" height="30" as="geometry" />
        </mxCell>
        <mxCell id="C6v04_ZCaa2lR-fAz-w3-219" value="200" style="text;html=1;strokeColor=none;fillColor=none;align=center;verticalAlign=middle;whiteSpace=wrap;rounded=0;fontSize=20;" vertex="1" parent="1">
          <mxGeometry x="340" y="1261.84" width="60" height="30" as="geometry" />
        </mxCell>
        <mxCell id="C6v04_ZCaa2lR-fAz-w3-220" value="" style="endArrow=classic;html=1;rounded=0;exitX=0.833;exitY=0.5;exitDx=0;exitDy=0;exitPerimeter=0;fontSize=20;" edge="1" parent="1" source="C6v04_ZCaa2lR-fAz-w3-214" target="C6v04_ZCaa2lR-fAz-w3-219">
          <mxGeometry width="50" height="50" relative="1" as="geometry">
            <mxPoint x="280" y="1396.84" as="sourcePoint" />
            <mxPoint x="330" y="1346.84" as="targetPoint" />
          </mxGeometry>
        </mxCell>
        <mxCell id="C6v04_ZCaa2lR-fAz-w3-221" style="edgeStyle=orthogonalEdgeStyle;rounded=0;orthogonalLoop=1;jettySize=auto;html=1;exitX=0.5;exitY=1;exitDx=0;exitDy=0;fontSize=20;" edge="1" parent="1" source="C6v04_ZCaa2lR-fAz-w3-219" target="C6v04_ZCaa2lR-fAz-w3-219">
          <mxGeometry relative="1" as="geometry" />
        </mxCell>
        <mxCell id="C6v04_ZCaa2lR-fAz-w3-222" value="" style="rounded=1;whiteSpace=wrap;html=1;fontSize=20;" vertex="1" parent="1">
          <mxGeometry x="520" y="1233" width="120" height="80" as="geometry" />
        </mxCell>
        <mxCell id="C6v04_ZCaa2lR-fAz-w3-223" value="" style="endArrow=none;dashed=1;html=1;rounded=0;entryX=0.667;entryY=0;entryDx=0;entryDy=0;entryPerimeter=0;exitX=0.664;exitY=1.012;exitDx=0;exitDy=0;exitPerimeter=0;fontSize=20;" edge="1" parent="1" source="C6v04_ZCaa2lR-fAz-w3-222" target="C6v04_ZCaa2lR-fAz-w3-222">
          <mxGeometry width="50" height="50" relative="1" as="geometry">
            <mxPoint x="570" y="1443" as="sourcePoint" />
            <mxPoint x="830" y="1463" as="targetPoint" />
            <Array as="points">
              <mxPoint x="600" y="1273" />
            </Array>
          </mxGeometry>
        </mxCell>
        <mxCell id="C6v04_ZCaa2lR-fAz-w3-224" value="250" style="text;html=1;strokeColor=none;fillColor=none;align=center;verticalAlign=middle;whiteSpace=wrap;rounded=0;fontSize=20;" vertex="1" parent="1">
          <mxGeometry x="540" y="1258.96" width="60" height="30" as="geometry" />
        </mxCell>
        <mxCell id="C6v04_ZCaa2lR-fAz-w3-225" style="edgeStyle=orthogonalEdgeStyle;rounded=0;orthogonalLoop=1;jettySize=auto;html=1;exitX=0.5;exitY=1;exitDx=0;exitDy=0;fontSize=20;" edge="1" parent="1" source="C6v04_ZCaa2lR-fAz-w3-224" target="C6v04_ZCaa2lR-fAz-w3-224">
          <mxGeometry relative="1" as="geometry" />
        </mxCell>
        <mxCell id="C6v04_ZCaa2lR-fAz-w3-226" value="" style="endArrow=classic;html=1;rounded=0;exitX=0.833;exitY=0.5;exitDx=0;exitDy=0;exitPerimeter=0;fontSize=20;" edge="1" parent="1">
          <mxGeometry width="50" height="50" relative="1" as="geometry">
            <mxPoint x="420" y="1275.45" as="sourcePoint" />
            <mxPoint x="540" y="1275.45" as="targetPoint" />
          </mxGeometry>
        </mxCell>
        <mxCell id="C6v04_ZCaa2lR-fAz-w3-227" value="" style="rounded=1;whiteSpace=wrap;html=1;fontSize=20;" vertex="1" parent="1">
          <mxGeometry x="720" y="1236.84" width="120" height="80" as="geometry" />
        </mxCell>
        <mxCell id="C6v04_ZCaa2lR-fAz-w3-228" value="" style="endArrow=none;dashed=1;html=1;rounded=0;entryX=0.667;entryY=0;entryDx=0;entryDy=0;entryPerimeter=0;exitX=0.664;exitY=1.012;exitDx=0;exitDy=0;exitPerimeter=0;fontSize=20;" edge="1" parent="1" source="C6v04_ZCaa2lR-fAz-w3-227" target="C6v04_ZCaa2lR-fAz-w3-227">
          <mxGeometry width="50" height="50" relative="1" as="geometry">
            <mxPoint x="770" y="1446.84" as="sourcePoint" />
            <mxPoint x="1030" y="1466.84" as="targetPoint" />
            <Array as="points">
              <mxPoint x="800" y="1276.84" />
            </Array>
          </mxGeometry>
        </mxCell>
        <mxCell id="C6v04_ZCaa2lR-fAz-w3-229" value="400" style="text;html=1;strokeColor=none;fillColor=none;align=center;verticalAlign=middle;whiteSpace=wrap;rounded=0;fontSize=20;" vertex="1" parent="1">
          <mxGeometry x="730" y="1261.84" width="60" height="30" as="geometry" />
        </mxCell>
        <mxCell id="C6v04_ZCaa2lR-fAz-w3-230" value="" style="endArrow=none;html=1;rounded=0;exitX=0.833;exitY=0.524;exitDx=0;exitDy=0;exitPerimeter=0;fontSize=20;" edge="1" parent="1">
          <mxGeometry width="50" height="50" relative="1" as="geometry">
            <mxPoint x="820" y="1276.84" as="sourcePoint" />
            <mxPoint x="920" y="1316.84" as="targetPoint" />
            <Array as="points">
              <mxPoint x="920" y="1276.84" />
            </Array>
          </mxGeometry>
        </mxCell>
        <mxCell id="C6v04_ZCaa2lR-fAz-w3-231" value="" style="shape=link;html=1;rounded=0;fontSize=20;" edge="1" parent="1">
          <mxGeometry width="100" relative="1" as="geometry">
            <mxPoint x="900" y="1318.8500000000001" as="sourcePoint" />
            <mxPoint x="940" y="1318.8500000000001" as="targetPoint" />
          </mxGeometry>
        </mxCell>
        <mxCell id="C6v04_ZCaa2lR-fAz-w3-232" value="" style="endArrow=classic;html=1;rounded=0;exitX=0.833;exitY=0.5;exitDx=0;exitDy=0;exitPerimeter=0;fontSize=20;" edge="1" parent="1">
          <mxGeometry width="50" height="50" relative="1" as="geometry">
            <mxPoint x="620" y="1276.21" as="sourcePoint" />
            <mxPoint x="740" y="1276.21" as="targetPoint" />
          </mxGeometry>
        </mxCell>
        <mxCell id="C6v04_ZCaa2lR-fAz-w3-233" value="Head" style="text;html=1;strokeColor=none;fillColor=none;align=center;verticalAlign=middle;whiteSpace=wrap;rounded=0;fontSize=20;" vertex="1" parent="1">
          <mxGeometry x="150" y="311.91999999999996" width="60" height="30" as="geometry" />
        </mxCell>
        <mxCell id="C6v04_ZCaa2lR-fAz-w3-234" value="Head" style="text;html=1;strokeColor=none;fillColor=none;align=center;verticalAlign=middle;whiteSpace=wrap;rounded=0;fontSize=20;" vertex="1" parent="1">
          <mxGeometry x="150" y="522.88" width="60" height="30" as="geometry" />
        </mxCell>
        <mxCell id="C6v04_ZCaa2lR-fAz-w3-235" value="Head" style="text;html=1;strokeColor=none;fillColor=none;align=center;verticalAlign=middle;whiteSpace=wrap;rounded=0;fontSize=20;" vertex="1" parent="1">
          <mxGeometry x="150" y="721.92" width="60" height="30" as="geometry" />
        </mxCell>
        <mxCell id="C6v04_ZCaa2lR-fAz-w3-236" value="Head" style="text;html=1;strokeColor=none;fillColor=none;align=center;verticalAlign=middle;whiteSpace=wrap;rounded=0;fontSize=20;" vertex="1" parent="1">
          <mxGeometry x="150" y="926.81" width="60" height="30" as="geometry" />
        </mxCell>
        <mxCell id="C6v04_ZCaa2lR-fAz-w3-238" value="Head" style="text;html=1;strokeColor=none;fillColor=none;align=center;verticalAlign=middle;whiteSpace=wrap;rounded=0;fontSize=20;" vertex="1" parent="1">
          <mxGeometry x="150" y="119.99999999999997" width="60" height="30" as="geometry" />
        </mxCell>
        <mxCell id="C6v04_ZCaa2lR-fAz-w3-239" value="Head" style="text;html=1;strokeColor=none;fillColor=none;align=center;verticalAlign=middle;whiteSpace=wrap;rounded=0;fontSize=20;" vertex="1" parent="1">
          <mxGeometry x="150" y="1124.8899999999999" width="60" height="30" as="geometry" />
        </mxCell>
        <mxCell id="C6v04_ZCaa2lR-fAz-w3-240" value="Head" style="text;html=1;strokeColor=none;fillColor=none;align=center;verticalAlign=middle;whiteSpace=wrap;rounded=0;fontSize=20;" vertex="1" parent="1">
          <mxGeometry x="150" y="1320" width="60" height="30" as="geometry" />
        </mxCell>
        <mxCell id="C6v04_ZCaa2lR-fAz-w3-241" value="Tail" style="text;html=1;strokeColor=none;fillColor=none;align=center;verticalAlign=middle;whiteSpace=wrap;rounded=0;fontSize=20;" vertex="1" parent="1">
          <mxGeometry x="750" y="119.03999999999999" width="60" height="30" as="geometry" />
        </mxCell>
        <mxCell id="C6v04_ZCaa2lR-fAz-w3-242" value="Tail" style="text;html=1;strokeColor=none;fillColor=none;align=center;verticalAlign=middle;whiteSpace=wrap;rounded=0;fontSize=20;" vertex="1" parent="1">
          <mxGeometry x="950" y="310" width="60" height="30" as="geometry" />
        </mxCell>
        <mxCell id="C6v04_ZCaa2lR-fAz-w3-243" value="Tail" style="text;html=1;strokeColor=none;fillColor=none;align=center;verticalAlign=middle;whiteSpace=wrap;rounded=0;fontSize=20;" vertex="1" parent="1">
          <mxGeometry x="1150" y="522.88" width="60" height="30" as="geometry" />
        </mxCell>
        <mxCell id="C6v04_ZCaa2lR-fAz-w3-244" value="Tail" style="text;html=1;strokeColor=none;fillColor=none;align=center;verticalAlign=middle;whiteSpace=wrap;rounded=0;fontSize=20;" vertex="1" parent="1">
          <mxGeometry x="1350" y="716.0699999999999" width="60" height="30" as="geometry" />
        </mxCell>
        <mxCell id="C6v04_ZCaa2lR-fAz-w3-245" value="Tail" style="text;html=1;strokeColor=none;fillColor=none;align=center;verticalAlign=middle;whiteSpace=wrap;rounded=0;fontSize=20;" vertex="1" parent="1">
          <mxGeometry x="1150" y="920.9599999999999" width="60" height="30" as="geometry" />
        </mxCell>
        <mxCell id="C6v04_ZCaa2lR-fAz-w3-246" value="Tail" style="text;html=1;strokeColor=none;fillColor=none;align=center;verticalAlign=middle;whiteSpace=wrap;rounded=0;fontSize=20;" vertex="1" parent="1">
          <mxGeometry x="950" y="1120" width="60" height="30" as="geometry" />
        </mxCell>
        <mxCell id="C6v04_ZCaa2lR-fAz-w3-247" value="Tail" style="text;html=1;strokeColor=none;fillColor=none;align=center;verticalAlign=middle;whiteSpace=wrap;rounded=0;fontSize=20;" vertex="1" parent="1">
          <mxGeometry x="750" y="1320" width="60" height="30" as="geometry" />
        </mxCell>
      </root>
    </mxGraphModel>
  </diagram>
</mxfile>
